<svg width="120" height="40" viewBox="0 0 120 40" xmlns="http://www.w3.org/2000/svg">
  <defs>
    <linearGradient id="gradient1-light" x1="0%" y1="0%" x2="100%" y2="100%">
      <stop offset="0%" style="stop-color:#3b82f6;stop-opacity:1" />
      <stop offset="50%" style="stop-color:#6366f1;stop-opacity:1" />
      <stop offset="100%" style="stop-color:#8b5cf6;stop-opacity:1" />
    </linearGradient>
    <linearGradient id="gradient2-light" x1="0%" y1="0%" x2="100%" y2="0%">
      <stop offset="0%" style="stop-color:#06b6d4;stop-opacity:1" />
      <stop offset="100%" style="stop-color:#3b82f6;stop-opacity:1" />
    </linearGradient>
  </defs>
  
  <!-- Background circle -->
  <circle cx="20" cy="20" r="18" fill="url(#gradient1-light)" opacity="0.1"/>
  
  <!-- Main logo mark - stylized "E" with AI nodes -->
  <g transform="translate(6, 8)">
    <!-- Letter E -->
    <path d="M4 4h12v3h-8v3h6v3h-6v3h8v3H4V4z" fill="url(#gradient1-light)" stroke="none"/>
    
    <!-- AI connection nodes -->
    <circle cx="20" cy="6" r="1.5" fill="#06b6d4"/>
    <circle cx="23" cy="10" r="1.5" fill="#3b82f6"/>
    <circle cx="20" cy="14" r="1.5" fill="#8b5cf6"/>
    <circle cx="26" cy="8" r="1.5" fill="#06b6d4"/>
    
    <!-- Connection lines -->
    <line x1="16" y1="8" x2="20" y2="6" stroke="#06b6d4" stroke-width="1" opacity="0.6"/>
    <line x1="16" y1="12" x2="23" y2="10" stroke="#3b82f6" stroke-width="1" opacity="0.6"/>
    <line x1="16" y1="16" x2="20" y2="14" stroke="#8b5cf6" stroke-width="1" opacity="0.6"/>
    <line x1="23" y1="10" x2="26" y2="8" stroke="#3b82f6" stroke-width="1" opacity="0.6"/>
  </g>
  
  <!-- Text "z Aigent" -->
  <text x="45" y="16" font-family="Inter, system-ui, sans-serif" font-size="12" font-weight="600" fill="#374151">z</text>
  <text x="56" y="28" font-family="Inter, system-ui, sans-serif" font-size="14" font-weight="700" fill="url(#gradient2-light)">Aigent</text>
</svg>